<svg width="338" height="549" viewBox="0 0 338 549" fill="none" xmlns="http://www.w3.org/2000/svg">
<path fill-rule="evenodd" clip-rule="evenodd" d="M-118.051 161.604L67.1988 58.5589L241.411 166.756L55.976 270.132L-118.051 161.604V161.604Z" stroke="#B5BDFC" stroke-width="0.28"/>
<path fill-rule="evenodd" clip-rule="evenodd" d="M56.2334 269.928L241.588 166.739L230.505 380.319L45.3354 483.178L56.2334 269.928V269.928Z" stroke="#B5BDFC" stroke-width="0.28"/>
<path fill-rule="evenodd" clip-rule="evenodd" d="M-117.797 161.152L56.402 269.776L45.4626 483.25L-128.922 374.956L-117.797 161.152Z" stroke="#B5BDFC" stroke-width="0.28"/>
<path fill-rule="evenodd" clip-rule="evenodd" d="M246.938 169.167C248.695 166.037 247.777 162.184 244.887 160.563C241.997 158.941 238.23 160.164 236.474 163.295C234.717 166.426 235.635 170.278 238.525 171.9C241.415 173.521 245.182 172.298 246.938 169.167Z" fill="#B6BDFC"/>
<path fill-rule="evenodd" clip-rule="evenodd" d="M237.082 384.947C238.838 381.816 237.92 377.964 235.03 376.342C232.14 374.721 228.373 375.944 226.617 379.075C224.86 382.205 225.778 386.058 228.668 387.679C231.558 389.301 235.325 388.078 237.082 384.947Z" fill="#B6BDFC"/>
<path fill-rule="evenodd" clip-rule="evenodd" d="M49.961 487.494C51.7178 484.364 50.7993 480.511 47.9094 478.889C45.0196 477.268 41.2529 478.491 39.4961 481.622C37.7393 484.752 38.6578 488.605 41.5476 490.226C44.4375 491.848 48.2042 490.625 49.961 487.494Z" fill="#B6BDFC"/>
<path fill-rule="evenodd" clip-rule="evenodd" d="M64.1783 274.161C65.9351 271.031 64.8213 267.069 61.6907 265.312C58.5601 263.555 54.5981 264.669 52.8413 267.8C51.0845 270.93 52.1983 274.892 55.3289 276.649C58.4595 278.406 62.4215 277.292 64.1783 274.161Z" fill="#B6BDFC"/>
</svg>
