<svg width="188" height="250" viewBox="0 0 188 250" fill="none" xmlns="http://www.w3.org/2000/svg">
<path d="M184.403 138.689L114.532 210.78L3.43265 175.491" stroke="#B5BDFC" stroke-width="0.4"/>
<path d="M3.5 175.5L94 2M94 2L114.5 210.5M94 2L184.5 138.5" stroke="#B5BDFC" stroke-width="0.4"/>
<path fill-rule="evenodd" clip-rule="evenodd" d="M5.68576 176.809C6.41774 175.504 6.03503 173.899 4.83094 173.223C3.62686 172.548 2.05736 173.057 1.32538 174.362C0.593391 175.666 0.976105 177.272 2.18019 177.947C3.38428 178.623 4.95377 178.113 5.68576 176.809Z" fill="#B6BDFC"/>
<path fill-rule="evenodd" clip-rule="evenodd" d="M115.686 211.809C116.418 210.504 116.035 208.899 114.831 208.223C113.627 207.548 112.057 208.057 111.325 209.362C110.593 210.666 110.976 212.272 112.18 212.947C113.384 213.623 114.954 213.113 115.686 211.809Z" fill="#B6BDFC"/>
<path fill-rule="evenodd" clip-rule="evenodd" d="M185.686 139.809C186.418 138.504 186.035 136.899 184.831 136.223C183.627 135.548 182.057 136.057 181.325 137.362C180.593 138.666 180.976 140.272 182.18 140.947C183.384 141.623 184.954 141.113 185.686 139.809Z" fill="#B6BDFC"/>
<path fill-rule="evenodd" clip-rule="evenodd" d="M95.6858 4.80873C96.4177 3.5043 96.035 1.89911 94.8309 1.22343C93.6269 0.547752 92.0574 1.05745 91.3254 2.36188C90.5934 3.66631 90.9761 5.2715 92.1802 5.94718C93.3843 6.62286 94.9538 6.11316 95.6858 4.80873Z" fill="#B6BDFC"/>
</svg>
