<svg width="690" height="821" viewBox="0 0 690 821" fill="none" xmlns="http://www.w3.org/2000/svg">
<path fill-rule="evenodd" clip-rule="evenodd" d="M289.246 261.27L458.715 133.928L646.054 217.36L476.446 345.055L289.246 261.27V261.27Z" stroke="#B5BDFC" stroke-width="0.28"/>
<path fill-rule="evenodd" clip-rule="evenodd" d="M476.673 344.818L646.227 217.319L664.369 430.416L494.954 557.563L476.673 344.818V344.818Z" stroke="#B5BDFC" stroke-width="0.28"/>
<path fill-rule="evenodd" clip-rule="evenodd" d="M289.436 260.787L476.819 344.644L495.089 557.616L307.567 474.111L289.436 260.787Z" stroke="#B5BDFC" stroke-width="0.28"/>
<path fill-rule="evenodd" clip-rule="evenodd" d="M313.364 475.963C314.678 472.622 313.243 468.93 310.159 467.718C307.075 466.506 303.51 468.231 302.196 471.572C300.883 474.913 302.318 478.604 305.402 479.817C308.486 481.029 312.051 479.304 313.364 475.963Z" fill="#B6BDFC"/>
<path fill-rule="evenodd" clip-rule="evenodd" d="M296.698 264.179C298.012 260.838 296.576 257.147 293.493 255.935C290.409 254.722 286.844 256.448 285.53 259.788C284.217 263.129 285.652 266.821 288.736 268.033C291.82 269.246 295.385 267.52 296.698 264.179Z" fill="#B6BDFC"/>
<path fill-rule="evenodd" clip-rule="evenodd" d="M651.858 218.996C653.172 215.655 651.736 211.963 648.652 210.751C645.568 209.539 642.004 211.264 640.69 214.605C639.377 217.946 640.812 221.637 643.896 222.85C646.98 224.062 650.545 222.337 651.858 218.996Z" fill="#B6BDFC"/>
<path fill-rule="evenodd" clip-rule="evenodd" d="M671.515 434.104C672.828 430.763 671.393 427.072 668.309 425.859C665.225 424.647 661.661 426.372 660.347 429.713C659.034 433.054 660.469 436.745 663.553 437.958C666.637 439.17 670.202 437.445 671.515 434.104Z" fill="#B6BDFC"/>
<path fill-rule="evenodd" clip-rule="evenodd" d="M500.124 561.207C501.438 557.867 500.003 554.175 496.919 552.963C493.835 551.75 490.27 553.476 488.957 556.817C487.643 560.158 489.078 563.849 492.162 565.061C495.246 566.274 498.811 564.548 500.124 561.207Z" fill="#B6BDFC"/>
<path fill-rule="evenodd" clip-rule="evenodd" d="M485.121 347.928C486.434 344.588 484.791 340.814 481.45 339.501C478.109 338.187 474.336 339.831 473.022 343.172C471.709 346.513 473.352 350.286 476.693 351.599C480.034 352.913 483.807 351.269 485.121 347.928Z" fill="#B6BDFC"/>
<path fill-rule="evenodd" clip-rule="evenodd" d="M296.698 264.179C298.012 260.838 296.576 257.147 293.493 255.935C290.409 254.722 286.844 256.448 285.53 259.788C284.217 263.129 285.652 266.821 288.736 268.033C291.82 269.246 295.385 267.52 296.698 264.179Z" fill="#B6BDFC"/>
<path fill-rule="evenodd" clip-rule="evenodd" d="M465.702 130.057C464.125 126.832 460.433 125.398 457.456 126.854C454.48 128.31 453.345 132.104 454.922 135.329C456.499 138.554 460.191 139.988 463.168 138.532C466.144 137.076 467.279 133.282 465.702 130.057Z" fill="#B6BDFC"/>
</svg>
