<svg width="447" height="291" viewBox="0 0 447 291" fill="none" xmlns="http://www.w3.org/2000/svg">
<path fill-rule="evenodd" clip-rule="evenodd" d="M444.175 154.121L474.197 363.965L310.877 487.994L280.612 277.859L444.175 154.121V154.121Z" stroke="#B5BDFC" stroke-width="0.28"/>
<path fill-rule="evenodd" clip-rule="evenodd" d="M280.71 278.172L310.83 488.166L115.321 401.473L85.4439 191.77L280.71 278.172V278.172Z" stroke="#B5BDFC" stroke-width="0.28"/>
<path fill-rule="evenodd" clip-rule="evenodd" d="M444.506 154.52L280.792 278.384L85.3317 191.863L248.803 67.7075L444.506 154.52Z" stroke="#B5BDFC" stroke-width="0.28"/>
<path fill-rule="evenodd" clip-rule="evenodd" d="M244.39 71.8971C246.685 74.6569 250.612 75.176 253.159 73.0568C255.706 70.9375 255.91 66.9823 253.615 64.2226C251.319 61.4629 247.392 60.9437 244.845 63.063C242.298 65.1822 242.094 69.1374 244.39 71.8971Z" fill="#B6BDFC"/>
<path fill-rule="evenodd" clip-rule="evenodd" d="M438.037 159.252C440.332 162.011 444.259 162.53 446.806 160.411C449.354 158.292 449.558 154.337 447.262 151.577C444.966 148.817 441.04 148.298 438.492 150.417C435.945 152.537 435.741 156.492 438.037 159.252Z" fill="#B6BDFC"/>
<path fill-rule="evenodd" clip-rule="evenodd" d="M79.7598 194.547C82.0557 197.307 85.982 197.826 88.5294 195.707C91.0768 193.588 91.2808 189.633 88.9849 186.873C86.689 184.113 82.7628 183.594 80.2153 185.713C77.6679 187.833 77.464 191.788 79.7598 194.547Z" fill="#B6BDFC"/>
<path fill-rule="evenodd" clip-rule="evenodd" d="M273.917 284.079C276.213 286.839 280.312 287.215 283.071 284.919C285.831 282.623 286.207 278.525 283.911 275.765C281.615 273.005 277.517 272.629 274.757 274.925C271.998 277.221 271.622 281.319 273.917 284.079Z" fill="#B6BDFC"/>
<path fill-rule="evenodd" clip-rule="evenodd" d="M438.037 159.252C440.332 162.011 444.259 162.53 446.806 160.411C449.354 158.292 449.558 154.337 447.262 151.577C444.966 148.817 441.04 148.298 438.492 150.417C435.945 152.537 435.741 156.492 438.037 159.252Z" fill="#B6BDFC"/>
</svg>
