<svg width="100" height="89" viewBox="0 0 100 89" fill="none" xmlns="http://www.w3.org/2000/svg">
<path fill-rule="evenodd" clip-rule="evenodd" d="M94.5399 1.08994C92.4008 -3.32172e-07 89.6005 -4.54575e-07 84 -6.99382e-07L27.7647 -3.15751e-06C22.1642 -3.40231e-06 19.3639 -3.52472e-06 17.2248 1.08993C15.3432 2.04866 13.8134 3.57847 12.8546 5.46009C11.7647 7.59921 11.7647 10.3995 11.7647 16L11.7647 33.0882L1.4424 43.4105C1.05188 43.8011 1.05188 44.4342 1.4424 44.8248L11.7647 55.147L11.7647 72.2353C11.7647 77.8358 11.7647 80.6361 12.8546 82.7752C13.8134 84.6568 15.3432 86.1866 17.2248 87.1454C19.3639 88.2353 22.1642 88.2353 27.7647 88.2353L84 88.2353C89.6005 88.2353 92.4008 88.2353 94.5399 87.1454C96.4215 86.1866 97.9513 84.6568 98.9101 82.7752C100 80.6361 100 77.8358 100 72.2353L100 16C100 10.3995 100 7.59921 98.9101 5.46009C97.9513 3.57847 96.4215 2.04867 94.5399 1.08994Z" fill="#6979F8"/>
<path d="M72.2292 65.875V64.0521V45.8229H74.0521C75.1458 45.8229 75.875 46.5521 75.875 47.6458V64.0521C75.875 65.1458 75.1458 65.875 74.0521 65.875H72.2292ZM35.7708 64.0521V65.875H33.9479C32.8542 65.875 32.125 65.1458 32.125 64.0521V47.6458C32.125 46.5521 32.8542 45.8229 33.9479 45.8229H35.7708V64.0521ZM66.7604 22.125C67.8542 22.125 68.5833 22.8542 68.5833 23.9479V64.0521C68.5833 65.1458 67.8542 65.875 66.7604 65.875H55.8229V58.5833H52.1771V65.875H41.2396C40.1458 65.875 39.4167 65.1458 39.4167 64.0521V23.9479C39.4167 22.8542 40.1458 22.125 41.2396 22.125H66.7604ZM50.3542 53.1146V49.4688H44.8854V53.1146H50.3542ZM50.3542 45.8229V42.1771H44.8854V45.8229H50.3542ZM50.3542 38.5312V34.8854H44.8854V38.5312H50.3542ZM50.3542 31.2396V27.5938H44.8854V31.2396H50.3542ZM63.1146 53.1146V49.4688H57.6458V53.1146H63.1146ZM63.1146 45.8229V42.1771H57.6458V45.8229H63.1146ZM63.1146 38.5312V34.8854H57.6458V38.5312H63.1146ZM63.1146 31.2396V27.5938H57.6458V31.2396H63.1146Z" fill="#3F3356"/>
</svg>
