<svg width="100" height="89" viewBox="0 0 100 89" fill="none" xmlns="http://www.w3.org/2000/svg">
<path fill-rule="evenodd" clip-rule="evenodd" d="M94.5399 1.08994C92.4008 -3.32172e-07 89.6005 -4.54575e-07 84 -6.99382e-07L27.7647 -3.15751e-06C22.1642 -3.40231e-06 19.3639 -3.52472e-06 17.2248 1.08993C15.3432 2.04866 13.8134 3.57847 12.8546 5.46009C11.7647 7.59921 11.7647 10.3995 11.7647 16L11.7647 33.0882L1.4424 43.4105C1.05188 43.8011 1.05188 44.4342 1.4424 44.8248L11.7647 55.147L11.7647 72.2353C11.7647 77.8358 11.7647 80.6361 12.8546 82.7752C13.8134 84.6568 15.3432 86.1866 17.2248 87.1454C19.3639 88.2353 22.1642 88.2353 27.7647 88.2353L84 88.2353C89.6005 88.2353 92.4008 88.2353 94.5399 87.1454C96.4215 86.1866 97.9513 84.6568 98.9101 82.7752C100 80.6361 100 77.8358 100 72.2353L100 16C100 10.3995 100 7.59921 98.9101 5.46009C97.9513 3.57847 96.4215 2.04867 94.5399 1.08994Z" fill="#6979F8"/>
<path d="M69.4062 38.5312C69.4062 44.5469 66.125 50.0156 61.2031 52.75V57.6719H44.7969V52.75C39.875 50.0156 36.5938 44.5469 36.5938 38.5312C36.5938 29.5078 43.9766 22.125 53 22.125C62.0234 22.125 69.4062 29.5078 69.4062 38.5312ZM50.2656 65.875C47.2578 65.875 44.7969 63.4141 44.7969 60.4062H61.2031C61.2031 63.4141 58.7422 65.875 55.7344 65.875H50.2656Z" fill="#3F3356"/>
</svg>
