<svg width="24" height="24" viewBox="0 0 24 24" fill="none" xmlns="http://www.w3.org/2000/svg">
<path d="M20.8 11.4C20.9 11.9 21 12.5 21 13C21 14.4 20.7 15.8 20.1 17C18.1 18.1 17.2 17.5 16.3 16.8C15.7 16.3 14.8 15.7 13.7 16.1C12.6 16.5 11.8 17.4 11.3 18.5C10.9 19.5 10.8 20.8 11 22C9 21.8 7.2 20.9 5.9 19.6C6.6 18.1 6.6 16.6 5.7 15.3C5.5 14.9 5.2 14.6 4.9 14.3C4.4 13.8 4.6 12.9 5.2 12.6C6 12.2 6.9 11.8 7.5 11C8.7 9.20001 7.3 6.60001 7 6.10001C6.9 6.00001 6.8 5.90001 6.7 5.70001C7.7 5.00001 8.8 4.50001 10 4.20001C10.1 3.40001 10.3 2.70001 10.6 2.10001C5.2 2.80001 1 7.40001 1 13C1 19.1 5.9 24 12 24C18.1 24 23 19.1 23 13C23 11.8 22.8 10.6 22.4 9.40001C21.9 10.1 21.4 10.8 20.8 11.4Z" fill="#BE52F2"/>
<path d="M17 0C14.5 0 12 1.9 12 5C12 7.8 15.9 11.4 16.3 11.7C16.5 11.9 16.7 12 17 12C17.3 12 17.5 11.9 17.7 11.7C18.1 11.4 22 7.8 22 5C22 1.9 19.5 0 17 0ZM17 7C15.9 7 15 6.1 15 5C15 3.9 15.9 3 17 3C18.1 3 19 3.9 19 5C19 6.1 18.1 7 17 7Z" fill="#DBA5F5"/>
</svg>
