<svg width="24" height="24" viewBox="0 0 24 24" fill="none" xmlns="http://www.w3.org/2000/svg">
<path d="M20.2721 10.7452C19.9614 10.4712 19.9317 9.99724 20.2057 9.68661C20.4797 9.37597 20.9537 9.34627 21.2643 9.62028C22.2018 10.4472 22.75 11.6357 22.75 12.9109V16.5473C22.75 18.9697 20.786 20.9336 18.3636 20.9336H10.1818C7.75942 20.9336 5.79545 18.9697 5.79545 16.5473V12.9109C5.79545 10.4885 7.75942 8.52455 10.1818 8.52455H13.8182C14.2324 8.52455 14.5682 8.86034 14.5682 9.27455C14.5682 9.68877 14.2324 10.0246 13.8182 10.0246H10.1818C8.58785 10.0246 7.29545 11.3169 7.29545 12.9109V16.5473C7.29545 18.1412 8.58785 19.4336 10.1818 19.4336H18.3636C19.9576 19.4336 21.25 18.1412 21.25 16.5473V12.9109C21.25 12.0707 20.89 11.2903 20.2721 10.7452ZM3.72794 13.2585C4.03858 13.5325 4.06828 14.0064 3.79428 14.317C3.52027 14.6277 3.04633 14.6574 2.73569 14.3834C1.79816 13.5564 1.25 12.3679 1.25 11.0927V7.45637C1.25 5.03398 3.21397 3.07001 5.63636 3.07001H13.8182C16.2406 3.07001 18.2045 5.03398 18.2045 7.45637V11.0927C18.2045 13.5151 16.2406 15.4791 13.8182 15.4791H10.1818C9.7676 15.4791 9.43182 15.1433 9.43182 14.7291C9.43182 14.3149 9.7676 13.9791 10.1818 13.9791H13.8182C15.4122 13.9791 16.7045 12.6867 16.7045 11.0927V7.45637C16.7045 5.8624 15.4122 4.57001 13.8182 4.57001H5.63636C4.0424 4.57001 2.75 5.8624 2.75 7.45637V11.0927C2.75 11.9329 3.10995 12.7133 3.72794 13.2585Z" fill="#BE52F2"/>
</svg>
