<svg width="24" height="24" viewBox="0 0 24 24" fill="none" xmlns="http://www.w3.org/2000/svg">
<g clip-path="url(#clip0)">
<path d="M11.9999 24C5.38288 24 -0.00012207 18.617 -0.00012207 12C-0.00012207 5.383 5.38288 0 11.9999 0C18.6169 0 23.9999 5.383 23.9999 12C23.9999 18.617 18.6169 24 11.9999 24ZM11.9999 2C6.48588 2 1.99988 6.486 1.99988 12C1.99988 17.514 6.48588 22 11.9999 22C17.5139 22 21.9999 17.514 21.9999 12C21.9999 6.486 17.5139 2 11.9999 2Z" fill="#BE52F2"/>
<path d="M9.23789 9.23801L5.09589 18.904L14.7619 14.762L18.9039 5.09601L9.23789 9.23801ZM8.90389 15.096L10.7619 10.762L13.2389 13.239L8.90389 15.096Z" fill="#DBA5F5"/>
</g>
<defs>
<clipPath id="clip0">
<rect width="24" height="24" fill="white" transform="translate(-0.00012207)"/>
</clipPath>
</defs>
</svg>
