<svg width="25" height="24" viewBox="0 0 25 24" fill="none" xmlns="http://www.w3.org/2000/svg">
<g clip-path="url(#clip0)">
<path d="M12.2881 0C5.50246 0 0 5.50144 0 12.2881C0 17.7173 3.52092 22.3234 8.40335 23.9482C9.01747 24.062 9.24294 23.6817 9.24294 23.3571C9.24294 23.0641 9.23154 22.0961 9.22625 21.0693C5.80769 21.8127 5.08633 19.6195 5.08633 19.6195C4.52736 18.1992 3.72196 17.8215 3.72196 17.8215C2.60706 17.0588 3.806 17.0745 3.806 17.0745C5.03994 17.1612 5.68967 18.3408 5.68967 18.3408C6.78564 20.2194 8.56431 19.6763 9.26552 19.3623C9.37581 18.5681 9.69427 18.026 10.0457 17.7191C7.31633 17.4084 4.44718 16.3548 4.44718 11.6463C4.44718 10.3047 4.92721 9.20855 5.71327 8.34801C5.58569 8.0385 5.16508 6.78869 5.83231 5.0961C5.83231 5.0961 6.86419 4.76584 9.21241 6.35568C10.1926 6.08341 11.2438 5.94687 12.2881 5.94219C13.3324 5.94687 14.3844 6.08341 15.3664 6.35568C17.7118 4.76584 18.7423 5.0961 18.7423 5.0961C19.4111 6.78869 18.9903 8.0385 18.8627 8.34801C19.6506 9.20855 20.1274 10.3047 20.1274 11.6463C20.1274 16.366 17.2528 17.4052 14.5165 17.7094C14.9572 18.0907 15.35 18.8385 15.35 19.985C15.35 21.6291 15.3357 22.9524 15.3357 23.3571C15.3357 23.6841 15.5569 24.0673 16.1798 23.9466C21.0596 22.32 24.576 17.7155 24.576 12.2881C24.576 5.50144 19.0744 0 12.2881 0ZM4.60229 17.5047C4.57523 17.5657 4.47918 17.584 4.39169 17.5421C4.30256 17.502 4.2525 17.4188 4.2814 17.3575C4.30785 17.2947 4.4041 17.2772 4.49302 17.3193C4.58235 17.3594 4.63322 17.4434 4.60229 17.5047ZM5.20673 18.044C5.14813 18.0983 5.03357 18.0731 4.95583 17.9872C4.87546 17.9016 4.8604 17.787 4.91982 17.7318C4.98025 17.6775 5.09136 17.7029 5.17194 17.7886C5.25231 17.8753 5.26798 17.9891 5.20673 18.044ZM5.6214 18.734C5.54611 18.7863 5.423 18.7373 5.3469 18.628C5.27161 18.5188 5.27161 18.3877 5.34852 18.3352C5.42483 18.2827 5.54611 18.3299 5.62323 18.4384C5.69832 18.5495 5.69832 18.6805 5.6214 18.734ZM6.32269 19.5332C6.25534 19.6075 6.11188 19.5876 6.00688 19.4862C5.89944 19.3871 5.86953 19.2465 5.93709 19.1722C6.00525 19.0978 6.14952 19.1187 6.25534 19.2193C6.36196 19.3181 6.39452 19.4598 6.32269 19.5332ZM7.22904 19.803C7.19933 19.8993 7.06117 19.943 6.92198 19.9021C6.783 19.86 6.69204 19.7473 6.72012 19.65C6.74902 19.5531 6.8878 19.5076 7.028 19.5513C7.16677 19.5932 7.25794 19.7052 7.22904 19.803ZM8.26051 19.9175C8.26397 20.0188 8.14594 20.1028 7.99984 20.1047C7.85292 20.1079 7.73409 20.0259 7.73246 19.9262C7.73246 19.8239 7.84784 19.7406 7.99475 19.7382C8.14086 19.7353 8.26051 19.8167 8.26051 19.9175ZM9.27381 19.8786C9.29131 19.9775 9.18977 20.0791 9.04468 20.1061C8.90204 20.1322 8.76998 20.0711 8.75187 19.973C8.73416 19.8717 8.83753 19.7702 8.97997 19.7439C9.12526 19.7187 9.25529 19.7781 9.27381 19.8786Z" fill="#DB48F5"/>
</g>
<defs>
<clipPath id="clip0">
<rect width="24.576" height="24" fill="white"/>
</clipPath>
</defs>
</svg>
