<svg width="36" height="24" viewBox="0 0 36 24" fill="none" xmlns="http://www.w3.org/2000/svg">
<path d="M13.537 12L9.30293 7.76597C8.89894 7.36198 8.89894 6.70698 9.30293 6.30299C9.70692 5.899 10.3619 5.899 10.7659 6.30299L15.7314 11.2685C16.1354 11.6725 16.1354 12.3275 15.7314 12.7315L10.7659 17.697C10.3619 18.101 9.70692 18.101 9.30293 17.697C8.89894 17.293 8.89894 16.638 9.30293 16.234L13.537 12Z" fill="white"/>
<path d="M25.537 12L21.3029 7.76597C20.8989 7.36198 20.8989 6.70698 21.3029 6.30299C21.7069 5.899 22.3619 5.899 22.7659 6.30299L27.7314 11.2685C28.1354 11.6725 28.1354 12.3275 27.7314 12.7315L22.7659 17.697C22.3619 18.101 21.7069 18.101 21.3029 17.697C20.8989 17.293 20.8989 16.638 21.3029 16.234L25.537 12Z" fill="white"/>
<path d="M19.537 12L15.3029 7.76597C14.8989 7.36198 14.8989 6.70698 15.3029 6.30299C15.7069 5.899 16.3619 5.899 16.7659 6.30299L21.7314 11.2685C22.1354 11.6725 22.1354 12.3275 21.7314 12.7315L16.7659 17.697C16.3619 18.101 15.7069 18.101 15.3029 17.697C14.8989 17.293 14.8989 16.638 15.3029 16.234L19.537 12Z" fill="white"/>
</svg>
