<svg width="100" height="89" viewBox="0 0 100 89" fill="none" xmlns="http://www.w3.org/2000/svg">
<path fill-rule="evenodd" clip-rule="evenodd" d="M94.5399 1.08994C92.4008 -3.32172e-07 89.6005 -4.54575e-07 84 -6.99382e-07L27.7647 -3.15751e-06C22.1642 -3.40231e-06 19.3639 -3.52472e-06 17.2248 1.08993C15.3432 2.04866 13.8134 3.57847 12.8546 5.46009C11.7647 7.59921 11.7647 10.3995 11.7647 16L11.7647 33.0882L1.4424 43.4105C1.05188 43.8011 1.05188 44.4342 1.4424 44.8248L11.7647 55.147L11.7647 72.2353C11.7647 77.8358 11.7647 80.6361 12.8546 82.7752C13.8134 84.6568 15.3432 86.1866 17.2248 87.1454C19.3639 88.2353 22.1642 88.2353 27.7647 88.2353L84 88.2353C89.6005 88.2353 92.4008 88.2353 94.5399 87.1454C96.4215 86.1866 97.9513 84.6568 98.9101 82.7752C100 80.6361 100 77.8358 100 72.2353L100 16C100 10.3995 100 7.59921 98.9101 5.46009C97.9513 3.57847 96.4215 2.04867 94.5399 1.08994Z" fill="#6979F8"/>
<g clip-path="url(#clip0)">
<path d="M71.0182 40.6355C72.2157 40.6355 73.1875 41.6073 73.1875 42.8047V57.9896C73.1875 59.1871 72.2157 60.1589 71.0182 60.1589H66.6797V66.6667L60.1719 60.1589H49.3255L53.291 55.8204H66.6797C67.8771 55.8204 68.849 54.8485 68.849 53.6511V40.6355H71.0182ZM40.6484 31.9584H62.3411C63.5386 31.9584 64.5104 32.9302 64.5104 34.1276V49.3125C64.5104 50.51 63.5386 51.4818 62.3411 51.4818H51.4948L44.987 57.9896V51.4818H40.6484C39.451 51.4818 38.4792 50.51 38.4792 49.3125V34.1276C38.4792 32.9302 39.451 31.9584 40.6484 31.9584Z" fill="#3F3356"/>
</g>
<defs>
<clipPath id="clip0">
<rect width="39.6667" height="39.6667" fill="white" transform="translate(36 27)"/>
</clipPath>
</defs>
</svg>
