<svg width="324" height="56" viewBox="0 0 324 56" fill="none" xmlns="http://www.w3.org/2000/svg">
<path d="M21.2404 52.648C14.2804 52.648 9.00041 50.848 5.40041 47.248C1.80041 43.648 0.000406563 38.392 0.000406563 31.48V5.488C0.000406563 4.096 0.408406 2.992 1.22441 2.176C2.04041 1.312 3.14441 0.879997 4.53641 0.879997C5.92841 0.879997 7.03241 1.312 7.84841 2.176C8.66441 2.992 9.07241 4.096 9.07241 5.488V31.984C9.07241 36.352 10.1044 39.664 12.1684 41.92C14.2324 44.128 17.2564 45.232 21.2404 45.232C25.1764 45.232 28.1764 44.104 30.2404 41.848C32.3044 39.592 33.3364 36.304 33.3364 31.984V5.488C33.3364 4.096 33.7444 2.992 34.5604 2.176C35.3764 1.312 36.4804 0.879997 37.8724 0.879997C39.2644 0.879997 40.3684 1.312 41.1844 2.176C42.0004 2.992 42.4084 4.096 42.4084 5.488V31.48C42.4084 38.344 40.6084 43.6 37.0084 47.248C33.4084 50.848 28.1524 52.648 21.2404 52.648ZM91.5411 0.879997C92.8851 0.879997 93.9411 1.312 94.7091 2.176C95.5251 2.992 95.9331 4.096 95.9331 5.488V47.752C95.9331 49.144 95.5251 50.272 94.7091 51.136C93.8931 52 92.8371 52.432 91.5411 52.432C90.0051 52.432 88.8291 51.88 88.0131 50.776L61.7331 16.576V47.752C61.7331 49.144 61.3491 50.272 60.5811 51.136C59.8131 52 58.7571 52.432 57.4131 52.432C56.0691 52.432 55.0131 52 54.2451 51.136C53.4771 50.272 53.0931 49.144 53.0931 47.752V5.488C53.0931 4.096 53.5011 2.992 54.3171 2.176C55.1331 1.312 56.2131 0.879997 57.5571 0.879997C59.0451 0.879997 60.1971 1.432 61.0131 2.536L87.2211 36.592V5.488C87.2211 4.096 87.6051 2.992 88.3731 2.176C89.1891 1.312 90.2451 0.879997 91.5411 0.879997ZM111.49 52.432C110.098 52.432 108.97 52 108.106 51.136C107.29 50.272 106.882 49.144 106.882 47.752V5.488C106.882 4.096 107.29 2.992 108.106 2.176C108.97 1.312 110.098 0.879997 111.49 0.879997C112.93 0.879997 114.058 1.312 114.874 2.176C115.738 2.992 116.17 4.096 116.17 5.488V47.752C116.17 49.144 115.738 50.272 114.874 51.136C114.058 52 112.93 52.432 111.49 52.432Z" fill="#BE52F2"/>
<path d="M124.036 55.816C123.316 55.816 122.74 55.624 122.308 55.24C121.876 54.904 121.66 54.472 121.66 53.944C121.66 53.416 121.876 52.96 122.308 52.576C122.74 52.192 123.316 52 124.036 52H155.284C156.004 52 156.58 52.192 157.012 52.576C157.444 52.96 157.66 53.416 157.66 53.944C157.66 54.472 157.444 54.904 157.012 55.24C156.58 55.624 156.004 55.816 155.284 55.816H124.036ZM185.731 18.016C186.259 16.864 187.099 16.288 188.251 16.288C188.971 16.288 189.619 16.528 190.195 17.008C190.771 17.488 191.059 18.088 191.059 18.808C191.059 19.24 190.963 19.624 190.771 19.96L176.731 50.2C176.443 50.824 176.011 51.328 175.435 51.712C174.859 52.048 174.235 52.216 173.563 52.216C172.939 52.216 172.339 52.048 171.763 51.712C171.187 51.328 170.731 50.824 170.395 50.2L156.427 19.96C156.235 19.624 156.139 19.264 156.139 18.88C156.139 18.16 156.451 17.536 157.075 17.008C157.747 16.48 158.467 16.216 159.235 16.216C159.715 16.216 160.171 16.36 160.603 16.648C161.083 16.936 161.443 17.344 161.683 17.872L173.707 44.872L185.731 18.016ZM224.165 43.864C224.693 43.864 225.149 44.08 225.533 44.512C225.917 44.944 226.109 45.496 226.109 46.168C226.109 47.368 225.269 48.472 223.589 49.48C221.861 50.488 220.037 51.256 218.117 51.784C216.197 52.264 214.325 52.504 212.501 52.504C207.077 52.504 202.781 50.896 199.613 47.68C196.493 44.464 194.933 40.024 194.933 34.36C194.933 30.76 195.629 27.592 197.021 24.856C198.413 22.072 200.357 19.912 202.853 18.376C205.397 16.84 208.277 16.072 211.493 16.072C216.053 16.072 219.677 17.56 222.365 20.536C225.053 23.512 226.397 27.544 226.397 32.632C226.397 33.592 226.205 34.288 225.821 34.72C225.437 35.152 224.813 35.368 223.949 35.368H200.765C201.197 43.624 205.109 47.752 212.501 47.752C214.373 47.752 215.981 47.512 217.325 47.032C218.669 46.504 220.109 45.808 221.645 44.944C222.893 44.224 223.733 43.864 224.165 43.864ZM211.565 20.608C208.493 20.608 206.021 21.568 204.149 23.488C202.325 25.408 201.245 28.12 200.909 31.624H221.285C221.189 28.072 220.301 25.36 218.621 23.488C216.941 21.568 214.589 20.608 211.565 20.608ZM252.342 16.216C254.358 16.072 255.366 16.888 255.366 18.664C255.366 19.432 255.15 20.056 254.718 20.536C254.286 20.968 253.542 21.232 252.486 21.328L250.326 21.544C247.11 21.832 244.71 22.984 243.126 25C241.59 26.968 240.822 29.296 240.822 31.984V49.48C240.822 50.44 240.558 51.16 240.03 51.64C239.502 52.12 238.806 52.36 237.942 52.36C237.078 52.36 236.358 52.12 235.782 51.64C235.254 51.112 234.99 50.392 234.99 49.48V19.096C234.99 18.184 235.278 17.488 235.854 17.008C236.43 16.48 237.126 16.216 237.942 16.216C238.71 16.216 239.358 16.48 239.886 17.008C240.414 17.488 240.678 18.16 240.678 19.024V23.056C241.686 20.944 243.102 19.336 244.926 18.232C246.798 17.128 248.934 16.48 251.334 16.288L252.342 16.216ZM271.829 52.504C269.621 52.504 267.509 52.24 265.493 51.712C263.525 51.184 261.773 50.44 260.237 49.48C259.373 48.904 258.749 48.376 258.365 47.896C258.029 47.368 257.861 46.744 257.861 46.024C257.861 45.4 258.029 44.896 258.365 44.512C258.749 44.08 259.229 43.864 259.805 43.864C260.381 43.864 261.221 44.224 262.325 44.944C263.765 45.808 265.181 46.504 266.573 47.032C268.013 47.512 269.789 47.752 271.901 47.752C274.493 47.752 276.509 47.296 277.949 46.384C279.389 45.472 280.109 44.152 280.109 42.424C280.109 41.368 279.845 40.528 279.317 39.904C278.789 39.232 277.877 38.656 276.581 38.176C275.285 37.648 273.389 37.12 270.893 36.592C266.669 35.68 263.645 34.456 261.821 32.92C259.997 31.384 259.085 29.296 259.085 26.656C259.085 24.592 259.661 22.768 260.813 21.184C261.965 19.6 263.549 18.352 265.565 17.44C267.629 16.528 269.957 16.072 272.549 16.072C274.421 16.072 276.221 16.336 277.949 16.864C279.725 17.344 281.285 18.04 282.629 18.952C284.261 20.104 285.077 21.304 285.077 22.552C285.077 23.176 284.885 23.704 284.501 24.136C284.117 24.568 283.661 24.784 283.133 24.784C282.557 24.784 281.693 24.376 280.541 23.56C279.197 22.696 277.925 22.024 276.725 21.544C275.525 21.064 274.037 20.824 272.261 20.824C270.005 20.824 268.181 21.328 266.789 22.336C265.445 23.344 264.773 24.688 264.773 26.368C264.773 27.424 265.013 28.288 265.493 28.96C266.021 29.584 266.861 30.16 268.013 30.688C269.213 31.168 270.917 31.648 273.125 32.128C276.389 32.848 278.909 33.64 280.685 34.504C282.509 35.368 283.805 36.424 284.573 37.672C285.341 38.92 285.725 40.504 285.725 42.424C285.725 45.448 284.453 47.896 281.909 49.768C279.365 51.592 276.005 52.504 271.829 52.504ZM321.759 43.864C322.287 43.864 322.743 44.08 323.127 44.512C323.511 44.944 323.703 45.496 323.703 46.168C323.703 47.368 322.863 48.472 321.183 49.48C319.455 50.488 317.631 51.256 315.711 51.784C313.791 52.264 311.919 52.504 310.095 52.504C304.671 52.504 300.375 50.896 297.207 47.68C294.087 44.464 292.527 40.024 292.527 34.36C292.527 30.76 293.223 27.592 294.615 24.856C296.007 22.072 297.951 19.912 300.447 18.376C302.991 16.84 305.871 16.072 309.087 16.072C313.647 16.072 317.271 17.56 319.959 20.536C322.647 23.512 323.991 27.544 323.991 32.632C323.991 33.592 323.799 34.288 323.415 34.72C323.031 35.152 322.407 35.368 321.543 35.368H298.359C298.791 43.624 302.703 47.752 310.095 47.752C311.967 47.752 313.575 47.512 314.919 47.032C316.263 46.504 317.703 45.808 319.239 44.944C320.487 44.224 321.327 43.864 321.759 43.864ZM309.159 20.608C306.087 20.608 303.615 21.568 301.743 23.488C299.919 25.408 298.839 28.12 298.503 31.624H318.879C318.783 28.072 317.895 25.36 316.215 23.488C314.535 21.568 312.183 20.608 309.159 20.608Z" fill="#6979F8"/>
</svg>
