<svg width="32" height="32" viewBox="0 0 32 32" fill="none" xmlns="http://www.w3.org/2000/svg">
<path d="M16 28C22.6274 28 28 22.6274 28 16C28 9.37258 22.6274 4 16 4C9.37258 4 4 9.37258 4 16C4 22.6274 9.37258 28 16 28Z" fill="url(#paint0_linear)"/>
<g opacity="0.7">
<path opacity="0.7" d="M11.0974 13.2145C11.0488 13.2145 11.0017 13.1894 10.9757 13.1443C10.9372 13.0771 10.9602 12.9913 11.0271 12.9528L15.9271 10.1251C15.9951 10.0861 16.08 10.1096 16.1188 10.1767C16.1575 10.2437 16.1343 10.3295 16.0673 10.3682L11.1672 13.1957C11.1451 13.2084 11.121 13.2145 11.0974 13.2145Z" fill="#FAFAFA"/>
<path opacity="0.7" d="M11.0974 18.8777C11.0488 18.8777 11.0017 18.8528 10.9759 18.8077C10.9372 18.7405 10.9599 18.6547 11.0271 18.616L20.8209 12.9527C20.8878 12.9135 20.9736 12.9367 21.0121 13.0041C21.0509 13.0711 21.0281 13.1569 20.9607 13.1956L11.1672 18.8589C11.1453 18.8716 11.121 18.8777 11.0974 18.8777Z" fill="#FAFAFA"/>
<path opacity="0.7" d="M20.8905 13.2145C20.8671 13.2145 20.8428 13.2084 20.8209 13.1957L15.9271 10.3682C15.8603 10.3295 15.8372 10.2437 15.8761 10.1765C15.9144 10.1095 15.9998 10.0861 16.0674 10.1251L20.9607 12.9528C21.0279 12.9915 21.0509 13.0773 21.0122 13.1445C20.9861 13.1893 20.9391 13.2145 20.8905 13.2145Z" fill="#FAFAFA"/>
<path opacity="0.7" d="M20.8911 18.8778C20.8673 18.8778 20.8432 18.8717 20.8213 18.859L11.0271 13.1957C10.9599 13.157 10.9372 13.0712 10.9759 13.0042C11.0144 12.937 11.1002 12.9141 11.1672 12.9528L20.9614 18.6161C21.0285 18.6548 21.0513 18.7406 21.0126 18.8078C20.9867 18.8526 20.9397 18.8778 20.8911 18.8778Z" fill="#FAFAFA"/>
<path opacity="0.7" d="M15.997 21.7126C15.9734 21.7126 15.9491 21.7065 15.9272 21.6938L11.027 18.8589C10.9599 18.8202 10.9371 18.7344 10.9761 18.6672C11.0144 18.6002 11.1001 18.5772 11.1673 18.616L16.0673 21.4509C16.1345 21.4896 16.1574 21.5756 16.1187 21.6426C16.0927 21.6877 16.0456 21.7126 15.997 21.7126Z" fill="#FAFAFA"/>
<path opacity="0.7" d="M15.9974 21.7126C15.9488 21.7126 15.902 21.6876 15.8759 21.6425C15.8372 21.5756 15.86 21.4896 15.9269 21.4508L20.821 18.6161C20.8884 18.5767 20.9735 18.6002 21.0124 18.6671C21.0514 18.7343 21.0284 18.8201 20.9617 18.8588L16.0674 21.6938C16.0453 21.7064 16.0212 21.7126 15.9974 21.7126Z" fill="#FAFAFA"/>
<path opacity="0.7" d="M11.0971 18.8778C11.0196 18.8778 10.957 18.815 10.957 18.7375V13.0742C10.957 12.9968 11.0196 12.934 11.0971 12.934C11.1746 12.934 11.2374 12.9968 11.2374 13.0742V18.7375C11.2374 18.815 11.1746 18.8778 11.0971 18.8778Z" fill="#FAFAFA"/>
<path opacity="0.7" d="M20.8913 18.8778C20.8139 18.8778 20.751 18.815 20.751 18.7375L20.7506 13.0742C20.7506 12.9968 20.8134 12.934 20.8909 12.934C20.9684 12.934 21.031 12.9968 21.031 13.0742L21.0314 18.7375C21.0314 18.815 20.9688 18.8778 20.8913 18.8778Z" fill="#FAFAFA"/>
<path opacity="0.7" d="M15.9973 21.6965C15.9199 21.6965 15.8571 21.6337 15.8571 21.5562V10.2468C15.8571 10.1693 15.9199 10.1065 15.9973 10.1065C16.0748 10.1065 16.1376 10.1693 16.1376 10.2468V21.5562C16.1376 21.6337 16.0748 21.6965 15.9973 21.6965Z" fill="#FAFAFA"/>
</g>
<path d="M17.4225 11.3181C17.3809 11.3181 17.3384 11.3074 17.2995 11.2849L15.9969 10.5309L14.6898 11.2851C14.572 11.3529 14.4219 11.3127 14.3541 11.1949C14.2862 11.0772 14.3267 10.9266 14.4444 10.8588L15.8746 10.0337C15.9505 9.98974 16.044 9.98974 16.1204 10.0339L17.5457 10.859C17.6634 10.9271 17.7035 11.0774 17.6356 11.1951C17.5899 11.2739 17.5074 11.3181 17.4225 11.3181Z" fill="#F9F9F9"/>
<path d="M15.9971 17.8019C15.8614 17.8019 15.7513 17.6918 15.7513 17.5559V15.9058C15.7513 15.7699 15.8614 15.6598 15.9971 15.6598C16.1328 15.6598 16.2429 15.7699 16.2429 15.9058V17.5559C16.2429 17.6918 16.1328 17.8019 15.9971 17.8019Z" fill="#F9F9F9"/>
<path d="M11.0971 14.9697C10.9616 14.9697 10.8516 14.8596 10.8516 14.7237V13.0742C10.8516 12.9383 10.9616 12.8283 11.0971 12.8283C11.2328 12.8283 11.3429 12.9383 11.3429 13.0742V14.7237C11.3429 14.8596 11.2328 14.9697 11.0971 14.9697Z" fill="#F9F9F9"/>
<path d="M20.891 14.9697C20.7553 14.9697 20.6452 14.8596 20.6452 14.7237L20.645 13.0742C20.645 12.9386 20.7551 12.8283 20.8908 12.8283C21.0262 12.8283 21.1363 12.9383 21.1363 13.0742L21.1365 14.7237C21.1365 14.8596 21.0265 14.9697 20.891 14.9697Z" fill="#F9F9F9"/>
<path d="M20.8912 18.9835C20.7556 18.9835 20.6455 18.8736 20.6455 18.7375L20.6442 17.0881C20.6439 16.9524 20.754 16.8421 20.8897 16.8421H20.8899C21.0256 16.8421 21.1357 16.9519 21.1357 17.0878L21.1368 18.7373C21.1372 18.8732 21.0269 18.9835 20.8915 18.9835H20.8912Z" fill="#F9F9F9"/>
<path d="M11.0971 18.9835C10.9616 18.9835 10.8516 18.8734 10.8516 18.7375V17.0881C10.8516 16.9522 10.9616 16.8421 11.0971 16.8421C11.2328 16.8421 11.3429 16.9522 11.3429 17.0881V18.7375C11.3429 18.8734 11.2328 18.9835 11.0971 18.9835Z" fill="#F9F9F9"/>
<path d="M15.9971 12.2911C15.8614 12.2911 15.7513 12.181 15.7513 12.0451V10.2466C15.7513 10.1107 15.8614 10.0007 15.9971 10.0007C16.1328 10.0007 16.2429 10.1107 16.2429 10.2466V12.0451C16.2429 12.181 16.1328 12.2911 15.9971 12.2911Z" fill="#F9F9F9"/>
<path d="M15.9971 21.8183C15.8614 21.8183 15.7513 21.7082 15.7513 21.5723V19.9229C15.7513 19.787 15.8614 19.6769 15.9971 19.6769C16.1328 19.6769 16.2429 19.787 16.2429 19.9229V21.5723C16.2429 21.7082 16.1328 21.8183 15.9971 21.8183Z" fill="#F9F9F9"/>
<path d="M15.9971 21.8184C15.9549 21.8184 15.9122 21.8075 15.8741 21.7856L14.4389 20.9553C14.3214 20.8872 14.2811 20.7366 14.3494 20.6191C14.417 20.5014 14.5674 20.4613 14.6851 20.5292L15.9971 21.2884L17.2914 20.5384C17.4087 20.4703 17.5592 20.5106 17.6273 20.6281C17.6953 20.7456 17.6551 20.8962 17.5376 20.9642L16.1201 21.7853C16.0825 21.8075 16.0396 21.8184 15.9971 21.8184Z" fill="#F9F9F9"/>
<path d="M15.9972 16.1518C15.955 16.1518 15.9125 16.1409 15.8742 16.119L14.4441 15.2935C14.3265 15.2255 14.2863 15.0751 14.3541 14.9574C14.4224 14.8394 14.5721 14.7998 14.6898 14.867L15.997 15.6218L17.2996 14.8674C17.4177 14.7994 17.5674 14.8394 17.6355 14.9572C17.7035 15.0747 17.6633 15.2253 17.5458 15.2933L16.1202 16.1188C16.0826 16.1409 16.0397 16.1518 15.9972 16.1518Z" fill="#F9F9F9"/>
<path d="M19.4637 14.1455C19.3788 14.1455 19.2961 14.1015 19.2508 14.0225C19.1827 13.9048 19.2228 13.7544 19.3407 13.6864L20.7678 12.8611C20.8851 12.7935 21.0357 12.8335 21.1033 12.9511C21.1714 13.069 21.1311 13.2194 21.0134 13.2874L19.5865 14.1125C19.5478 14.1348 19.5055 14.1455 19.4637 14.1455Z" fill="#F9F9F9"/>
<path d="M20.8904 13.3204C20.8488 13.3204 20.8063 13.3096 20.7678 13.2873L19.3385 12.4614C19.221 12.3935 19.1808 12.2432 19.2484 12.1255C19.3167 12.0077 19.4672 11.9675 19.5843 12.0353L21.0134 12.8612C21.1311 12.9291 21.1714 13.0794 21.1037 13.1974C21.0582 13.2761 20.9755 13.3204 20.8904 13.3204Z" fill="#F9F9F9"/>
<path d="M12.5249 14.1455C12.4831 14.1455 12.4409 14.1348 12.4021 14.1125L10.9742 13.2874C10.8569 13.2194 10.8164 13.069 10.8842 12.9513C10.9521 12.8336 11.1031 12.7935 11.2199 12.8611L12.6479 13.6864C12.7656 13.7542 12.8059 13.9048 12.7381 14.0225C12.6925 14.1013 12.6098 14.1455 12.5249 14.1455Z" fill="#F9F9F9"/>
<path d="M11.0973 13.3203C11.0124 13.3203 10.9296 13.2761 10.8841 13.1971C10.8165 13.0794 10.8568 12.929 10.9745 12.861L12.4011 12.0379C12.5182 11.97 12.6688 12.0103 12.7366 12.1283C12.8045 12.2458 12.764 12.3964 12.6465 12.4642L11.2198 13.2875C11.1811 13.3096 11.1388 13.3203 11.0973 13.3203Z" fill="#F9F9F9"/>
<path d="M19.4611 19.8087C19.376 19.8087 19.2933 19.7645 19.2478 19.6855C19.1801 19.5678 19.2204 19.4172 19.3381 19.3496L20.7687 18.5243C20.886 18.4563 21.0362 18.4967 21.1042 18.6145C21.1718 18.7324 21.1316 18.8828 21.0138 18.9506L19.5835 19.7759C19.545 19.798 19.5025 19.8087 19.4611 19.8087Z" fill="#F9F9F9"/>
<path d="M20.891 18.9837C20.8492 18.9837 20.8068 18.9729 20.7682 18.9506L19.3403 18.1254C19.2228 18.0575 19.1823 17.9069 19.2503 17.7892C19.3182 17.6715 19.4692 17.6316 19.586 17.6993L21.014 18.5245C21.1315 18.5924 21.1718 18.7429 21.1042 18.8607C21.0587 18.9395 20.9759 18.9837 20.891 18.9837Z" fill="#F9F9F9"/>
<path d="M12.5249 19.8097C12.4831 19.8097 12.4409 19.799 12.4019 19.7766L10.9739 18.9505C10.8566 18.8824 10.8164 18.7321 10.8844 18.6144C10.9521 18.4968 11.1026 18.4568 11.2201 18.5244L12.6481 19.3505C12.7658 19.4186 12.8059 19.569 12.7378 19.6867C12.6925 19.7655 12.6098 19.8097 12.5249 19.8097Z" fill="#F9F9F9"/>
<path d="M11.0973 18.9836C11.0124 18.9836 10.9298 18.9397 10.8843 18.8607C10.8165 18.7431 10.8565 18.5926 10.9741 18.5247L12.3994 17.6992C12.5176 17.6312 12.6673 17.6715 12.7353 17.7892C12.8034 17.9067 12.7631 18.0573 12.6456 18.1253L11.2203 18.9506C11.1815 18.9729 11.1391 18.9836 11.0973 18.9836Z" fill="#F9F9F9"/>
<defs>
<linearGradient id="paint0_linear" x1="16" y1="-8" x2="-8" y2="16" gradientUnits="userSpaceOnUse">
<stop stop-color="#BD7AE3"/>
<stop offset="1" stop-color="#8461C9"/>
</linearGradient>
</defs>
</svg>
