<svg width="100" height="89" viewBox="0 0 100 89" fill="none" xmlns="http://www.w3.org/2000/svg">
<path fill-rule="evenodd" clip-rule="evenodd" d="M94.5399 1.08994C92.4008 -3.32172e-07 89.6005 -4.54575e-07 84 -6.99382e-07L27.7647 -3.15751e-06C22.1642 -3.40231e-06 19.3639 -3.52472e-06 17.2248 1.08993C15.3432 2.04866 13.8134 3.57847 12.8546 5.46009C11.7647 7.59921 11.7647 10.3995 11.7647 16L11.7647 33.0882L1.4424 43.4105C1.05188 43.8011 1.05188 44.4342 1.4424 44.8248L11.7647 55.147L11.7647 72.2353C11.7647 77.8358 11.7647 80.6361 12.8546 82.7752C13.8134 84.6568 15.3432 86.1866 17.2248 87.1454C19.3639 88.2353 22.1642 88.2353 27.7647 88.2353L84 88.2353C89.6005 88.2353 92.4008 88.2353 94.5399 87.1454C96.4215 86.1866 97.9513 84.6568 98.9101 82.7752C100 80.6361 100 77.8358 100 72.2353L100 16C100 10.3995 100 7.59921 98.9101 5.46009C97.9513 3.57847 96.4215 2.04867 94.5399 1.08994Z" fill="#6979F8"/>
<g clip-path="url(#clip0)">
<path d="M56.9251 40.8691C55.698 40.8691 54.7776 39.9487 54.7776 38.7216L54.7776 26.4504C54.7776 25.2232 55.698 24.3029 56.9251 24.3029C58.1522 24.3029 59.0725 25.2232 59.0725 26.4504L59.0725 38.7216C59.0725 39.9487 58.1522 40.8691 56.9251 40.8691ZM66.1285 50.0725C64.9014 50.0725 63.981 49.1522 63.981 47.925V35.6538C63.981 34.4267 64.9014 33.5063 66.1285 33.5063C67.3556 33.5063 68.276 34.4267 68.276 35.6538V47.925C68.276 49.1522 67.3556 50.0725 66.1285 50.0725ZM47.7216 53.1403C46.4945 53.1403 45.5742 52.22 45.5742 50.9929V38.7216C45.5742 37.4945 46.4945 36.5741 47.7216 36.5741C48.9488 36.5741 49.8691 37.4945 49.8691 38.7216L49.8691 50.9929C49.8691 52.22 48.9488 53.1403 47.7216 53.1403ZM47.7216 62.3438C46.4945 62.3438 45.5742 61.4234 45.5742 60.1963L45.5742 57.1285C45.5742 55.9014 46.4945 54.981 47.7216 54.981C48.9488 54.981 49.8691 55.9014 49.8691 57.1285V60.1963C49.8691 61.4234 48.9488 62.3438 47.7216 62.3438ZM56.9251 50.0725C55.698 50.0725 54.7776 49.1522 54.7776 47.925V44.8572C54.7776 43.6301 55.698 42.7098 56.9251 42.7098C58.1522 42.7098 59.0725 43.6301 59.0725 44.8572V47.925C59.0725 49.1522 58.1522 50.0725 56.9251 50.0725ZM66.1285 59.276C64.9014 59.276 63.981 58.3556 63.981 57.1285V54.0607C63.981 52.8335 64.9014 51.9132 66.1285 51.9132C67.3556 51.9132 68.276 52.8335 68.276 54.0607V57.1285C68.276 58.3556 67.3556 59.276 66.1285 59.276Z" fill="#3F3356"/>
</g>
<defs>
<clipPath id="clip0">
<rect width="39.6667" height="39.6667" fill="white" transform="translate(28 47.0486) rotate(-45)"/>
</clipPath>
</defs>
</svg>
