<svg width="50" height="66" viewBox="0 0 50 66" fill="none" xmlns="http://www.w3.org/2000/svg">
<path d="M25 42.0611L40.5618 26.4993C41.172 25.8891 42.1613 25.8891 42.7715 26.4993C43.3817 27.1095 43.3817 28.0988 42.7715 28.709L26.1049 45.3757C25.4947 45.9859 24.5053 45.9859 23.8951 45.3757L7.22848 28.709C6.61829 28.0988 6.61829 27.1095 7.22848 26.4993C7.83867 25.8891 8.82799 25.8891 9.43819 26.4993L25 42.0611Z" fill="white"/>
<path d="M25 58.0611L40.5618 42.4993C41.172 41.8891 42.1613 41.8891 42.7715 42.4993C43.3817 43.1095 43.3817 44.0988 42.7715 44.709L26.1049 61.3757C25.4947 61.9859 24.5053 61.9859 23.8951 61.3757L7.22848 44.709C6.61829 44.0988 6.61829 43.1095 7.22848 42.4993C7.83867 41.8891 8.82799 41.8891 9.43819 42.4993L25 58.0611Z" fill="white"/>
<g opacity="0.7">
<path d="M25 50.0611L40.5618 34.4993C41.172 33.8891 42.1613 33.8891 42.7715 34.4993C43.3817 35.1095 43.3817 36.0988 42.7715 36.709L26.1049 53.3757C25.4947 53.9859 24.5053 53.9859 23.8951 53.3757L7.22848 36.709C6.61829 36.0988 6.61829 35.1095 7.22848 34.4993C7.83867 33.8891 8.82799 33.8891 9.43819 34.4993L25 50.0611Z" fill="#BE52F2"/>
</g>
</svg>
