<svg width="17" height="17" viewBox="0 0 17 17" fill="none" xmlns="http://www.w3.org/2000/svg">
<path d="M16.8085 15.8838C17.0638 16.1392 17.0638 16.5532 16.8085 16.8085C16.5532 17.0638 16.1392 17.0638 15.8838 16.8085L12.7454 13.67C12.49 13.4147 12.49 13.0007 12.7454 12.7454C13.0007 12.49 13.4147 12.49 13.67 12.7454L16.8085 15.8838ZM6.93077 13.8615C3.10301 13.8615 0 10.7585 0 6.93077C0 3.10301 3.10301 0 6.93077 0C10.7585 0 13.8615 3.10301 13.8615 6.93077C13.8615 10.7585 10.7585 13.8615 6.93077 13.8615ZM6.93077 12.5538C10.0363 12.5538 12.5538 10.0363 12.5538 6.93077C12.5538 3.82523 10.0363 1.30769 6.93077 1.30769C3.82523 1.30769 1.30769 3.82523 1.30769 6.93077C1.30769 10.0363 3.82523 12.5538 6.93077 12.5538ZM3.70513 6.40769C3.70513 6.64843 3.50997 6.84359 3.26923 6.84359C3.02849 6.84359 2.83333 6.64843 2.83333 6.40769C2.83333 4.43363 4.43363 2.83333 6.40769 2.83333C6.64843 2.83333 6.84359 3.02849 6.84359 3.26923C6.84359 3.50997 6.64843 3.70513 6.40769 3.70513C4.91511 3.70513 3.70513 4.91511 3.70513 6.40769Z" fill="#F7F5F9"/>
</svg>
