<svg width="458" height="311" viewBox="0 0 458 311" fill="none" xmlns="http://www.w3.org/2000/svg">
<path d="M171.597 135.915C169.348 133.402 168.023 130.198 167.841 126.831V84.8435C168.023 81.4761 169.348 78.2715 171.597 75.7592L174.567 72.7881C175.563 71.7898 176.122 70.4371 176.122 69.0267C176.122 67.6163 175.563 66.2635 174.567 65.2653L143.063 33.7455C142.064 32.7502 140.711 32.1914 139.301 32.1914C137.891 32.1914 136.539 32.7502 135.54 33.7455L123.548 45.742C122.556 46.7427 122 48.0945 122 49.5034C122 50.9123 122.556 52.2641 123.548 53.2648L146.033 75.7582C148.285 78.2684 149.612 81.474 149.792 84.8426V126.83C149.613 130.197 148.286 133.4 146.033 135.908L123.548 158.41C122.556 159.411 122 160.763 122 162.171C122 163.58 122.556 164.932 123.548 165.933L135.54 177.929C136.539 178.924 137.891 179.483 139.301 179.483C140.711 179.483 142.063 178.924 143.063 177.929L174.567 146.407C175.563 145.408 176.122 144.056 176.122 142.646C176.122 141.235 175.563 139.883 174.567 138.885L171.597 135.915Z" fill="#BE52F2"/>
<path d="M258.176 162.383C255.665 164.632 252.463 165.959 249.097 166.145H207.137C203.769 165.959 200.564 164.633 198.05 162.383L195.087 159.404C194.084 158.412 192.732 157.856 191.322 157.856C189.912 157.856 188.56 158.412 187.557 159.404L156.057 190.924C155.062 191.925 154.504 193.279 154.504 194.69C154.504 196.101 155.062 197.455 156.057 198.455L168.049 210.452C169.05 211.444 170.402 212 171.811 212C173.221 212 174.573 211.444 175.574 210.452L198.054 187.947C200.567 185.699 203.771 184.373 207.138 184.187H249.11C252.476 184.372 255.678 185.698 258.189 187.947L280.679 210.452C281.68 211.444 283.031 212 284.44 212C285.848 212 287.2 211.444 288.2 210.452L300.192 198.455C301.187 197.455 301.745 196.101 301.745 194.69C301.745 193.279 301.187 191.925 300.192 190.924L268.669 159.402C267.669 158.41 266.318 157.854 264.91 157.854C263.502 157.854 262.15 158.41 261.15 159.402L258.176 162.383Z" fill="#6979F8"/>
<path d="M285.39 76.0831C287.644 78.5981 288.973 81.8075 289.156 85.1805V127.152C288.972 130.523 287.643 133.73 285.39 136.242L282.419 139.22C281.426 140.22 280.869 141.572 280.869 142.982C280.869 144.391 281.426 145.743 282.419 146.743L313.932 178.259C314.931 179.254 316.284 179.812 317.693 179.812C319.103 179.812 320.455 179.254 321.454 178.259L333.446 166.256C334.441 165.257 335 163.904 335 162.494C335 161.084 334.441 159.731 333.446 158.732L310.966 136.238C308.712 133.726 307.382 130.519 307.198 127.148L307.204 85.1765C307.385 81.8037 308.712 78.5942 310.966 76.0791L333.446 53.5857C334.441 52.5886 335 51.2372 335 49.8283C335 48.4194 334.441 47.068 333.446 46.0709L321.454 34.0674C320.96 33.5733 320.374 33.1813 319.729 32.9139C319.083 32.6465 318.392 32.5088 317.693 32.5088C316.995 32.5088 316.303 32.6465 315.658 32.9139C315.012 33.1813 314.426 33.5733 313.932 34.0674L282.419 65.5822C281.426 66.5821 280.869 67.9345 280.869 69.3441C280.869 70.7537 281.426 72.106 282.419 73.106L285.39 76.0831Z" fill="#6979F8"/>
<path d="M198.81 49.6159C201.32 47.3637 204.524 46.0365 207.891 45.854H249.854C253.22 46.0397 256.422 47.3665 258.934 49.6159L261.911 52.593C262.404 53.087 262.99 53.4788 263.635 53.7462C264.28 54.0135 264.971 54.1512 265.669 54.1512C266.367 54.1512 267.059 54.0135 267.703 53.7462C268.348 53.4788 268.934 53.087 269.428 52.593L300.936 21.0712C301.93 20.0705 302.488 18.7168 302.488 17.3058C302.488 15.8949 301.93 14.5412 300.936 13.5404L288.944 1.55794C287.946 0.560361 286.593 0 285.182 0C283.771 0 282.418 0.560361 281.42 1.55794L258.935 24.0514C256.423 26.3007 253.221 27.6275 249.855 27.8132H207.891C204.524 27.6307 201.32 26.3035 198.81 24.0514L176.324 1.55794C175.323 0.566433 173.971 0.0102509 172.562 0.0102509C171.154 0.0102509 169.802 0.566433 168.8 1.55794L156.808 13.5544C155.814 14.555 155.256 15.9085 155.256 17.3193C155.256 18.7301 155.814 20.0836 156.808 21.0842L188.31 52.592C189.308 53.5896 190.661 54.1499 192.072 54.1499C193.482 54.1499 194.836 53.5896 195.834 52.592L198.81 49.6159Z" fill="#BE52F2"/>
<path d="M34.8895 293.9C25.2228 293.9 17.8895 291.4 12.8895 286.4C7.88945 281.4 5.38945 274.1 5.38945 264.5V228.4C5.38945 226.467 5.95612 224.933 7.08945 223.8C8.22279 222.6 9.75612 222 11.6895 222C13.6228 222 15.1561 222.6 16.2895 223.8C17.4228 224.933 17.9895 226.467 17.9895 228.4V265.2C17.9895 271.267 19.4228 275.867 22.2895 279C25.1561 282.067 29.3561 283.6 34.8895 283.6C40.3561 283.6 44.5228 282.033 47.3895 278.9C50.2561 275.767 51.6895 271.2 51.6895 265.2V228.4C51.6895 226.467 52.2561 224.933 53.3895 223.8C54.5228 222.6 56.0561 222 57.9895 222C59.9228 222 61.4561 222.6 62.5895 223.8C63.7228 224.933 64.2895 226.467 64.2895 228.4V264.5C64.2895 274.033 61.7895 281.333 56.7895 286.4C51.7895 291.4 44.4895 293.9 34.8895 293.9ZM132.529 222C134.396 222 135.863 222.6 136.929 223.8C138.063 224.933 138.629 226.467 138.629 228.4V287.1C138.629 289.033 138.063 290.6 136.929 291.8C135.796 293 134.329 293.6 132.529 293.6C130.396 293.6 128.763 292.833 127.629 291.3L91.1293 243.8V287.1C91.1293 289.033 90.596 290.6 89.5293 291.8C88.4626 293 86.996 293.6 85.1293 293.6C83.2626 293.6 81.796 293 80.7293 291.8C79.6626 290.6 79.1293 289.033 79.1293 287.1V228.4C79.1293 226.467 79.696 224.933 80.8293 223.8C81.9626 222.6 83.4626 222 85.3293 222C87.396 222 88.996 222.767 90.1293 224.3L126.529 271.6V228.4C126.529 226.467 127.063 224.933 128.129 223.8C129.263 222.6 130.729 222 132.529 222ZM160.236 293.6C158.303 293.6 156.736 293 155.536 291.8C154.403 290.6 153.836 289.033 153.836 287.1V228.4C153.836 226.467 154.403 224.933 155.536 223.8C156.736 222.6 158.303 222 160.236 222C162.236 222 163.803 222.6 164.936 223.8C166.136 224.933 166.736 226.467 166.736 228.4V287.1C166.736 289.033 166.136 290.6 164.936 291.8C163.803 293 162.236 293.6 160.236 293.6Z" fill="#BE52F2"/>
<path d="M177.661 298.3C176.661 298.3 175.861 298.033 175.261 297.5C174.661 297.033 174.361 296.433 174.361 295.7C174.361 294.967 174.661 294.333 175.261 293.8C175.861 293.267 176.661 293 177.661 293H221.061C222.061 293 222.861 293.267 223.461 293.8C224.061 294.333 224.361 294.967 224.361 295.7C224.361 296.433 224.061 297.033 223.461 297.5C222.861 298.033 222.061 298.3 221.061 298.3H177.661ZM263.348 245.8C264.081 244.2 265.248 243.4 266.848 243.4C267.848 243.4 268.748 243.733 269.548 244.4C270.348 245.067 270.748 245.9 270.748 246.9C270.748 247.5 270.615 248.033 270.348 248.5L250.848 290.5C250.448 291.367 249.848 292.067 249.048 292.6C248.248 293.067 247.381 293.3 246.448 293.3C245.581 293.3 244.748 293.067 243.948 292.6C243.148 292.067 242.515 291.367 242.048 290.5L222.648 248.5C222.381 248.033 222.248 247.533 222.248 247C222.248 246 222.681 245.133 223.548 244.4C224.481 243.667 225.481 243.3 226.548 243.3C227.215 243.3 227.848 243.5 228.448 243.9C229.115 244.3 229.615 244.867 229.948 245.6L246.648 283.1L263.348 245.8ZM316.729 281.7C317.463 281.7 318.096 282 318.629 282.6C319.163 283.2 319.429 283.967 319.429 284.9C319.429 286.567 318.263 288.1 315.929 289.5C313.529 290.9 310.996 291.967 308.329 292.7C305.663 293.367 303.063 293.7 300.529 293.7C292.996 293.7 287.029 291.467 282.629 287C278.296 282.533 276.129 276.367 276.129 268.5C276.129 263.5 277.096 259.1 279.029 255.3C280.963 251.433 283.663 248.433 287.129 246.3C290.663 244.167 294.663 243.1 299.129 243.1C305.463 243.1 310.496 245.167 314.229 249.3C317.963 253.433 319.829 259.033 319.829 266.1C319.829 267.433 319.563 268.4 319.029 269C318.496 269.6 317.629 269.9 316.429 269.9H284.229C284.829 281.367 290.263 287.1 300.529 287.1C303.129 287.1 305.363 286.767 307.229 286.1C309.096 285.367 311.096 284.4 313.229 283.2C314.963 282.2 316.129 281.7 316.729 281.7ZM299.229 249.4C294.963 249.4 291.529 250.733 288.929 253.4C286.396 256.067 284.896 259.833 284.429 264.7H312.729C312.596 259.767 311.363 256 309.029 253.4C306.696 250.733 303.429 249.4 299.229 249.4ZM355.864 243.3C358.664 243.1 360.064 244.233 360.064 246.7C360.064 247.767 359.764 248.633 359.164 249.3C358.564 249.9 357.53 250.267 356.064 250.4L353.064 250.7C348.597 251.1 345.264 252.7 343.064 255.5C340.93 258.233 339.864 261.467 339.864 265.2V289.5C339.864 290.833 339.497 291.833 338.764 292.5C338.03 293.167 337.064 293.5 335.864 293.5C334.664 293.5 333.664 293.167 332.864 292.5C332.13 291.767 331.764 290.767 331.764 289.5V247.3C331.764 246.033 332.164 245.067 332.964 244.4C333.764 243.667 334.73 243.3 335.864 243.3C336.93 243.3 337.83 243.667 338.564 244.4C339.297 245.067 339.664 246 339.664 247.2V252.8C341.064 249.867 343.03 247.633 345.564 246.1C348.164 244.567 351.13 243.667 354.464 243.4L355.864 243.3ZM382.929 293.7C379.863 293.7 376.929 293.333 374.129 292.6C371.396 291.867 368.963 290.833 366.829 289.5C365.629 288.7 364.763 287.967 364.229 287.3C363.763 286.567 363.529 285.7 363.529 284.7C363.529 283.833 363.763 283.133 364.229 282.6C364.763 282 365.429 281.7 366.229 281.7C367.029 281.7 368.196 282.2 369.729 283.2C371.729 284.4 373.696 285.367 375.629 286.1C377.629 286.767 380.096 287.1 383.029 287.1C386.629 287.1 389.429 286.467 391.429 285.2C393.429 283.933 394.429 282.1 394.429 279.7C394.429 278.233 394.063 277.067 393.329 276.2C392.596 275.267 391.329 274.467 389.529 273.8C387.729 273.067 385.096 272.333 381.629 271.6C375.763 270.333 371.563 268.633 369.029 266.5C366.496 264.367 365.229 261.467 365.229 257.8C365.229 254.933 366.029 252.4 367.629 250.2C369.229 248 371.429 246.267 374.229 245C377.096 243.733 380.329 243.1 383.929 243.1C386.529 243.1 389.029 243.467 391.429 244.2C393.896 244.867 396.063 245.833 397.929 247.1C400.196 248.7 401.329 250.367 401.329 252.1C401.329 252.967 401.063 253.7 400.529 254.3C399.996 254.9 399.363 255.2 398.629 255.2C397.829 255.2 396.629 254.633 395.029 253.5C393.163 252.3 391.396 251.367 389.729 250.7C388.063 250.033 385.996 249.7 383.529 249.7C380.396 249.7 377.863 250.4 375.929 251.8C374.063 253.2 373.129 255.067 373.129 257.4C373.129 258.867 373.463 260.067 374.129 261C374.863 261.867 376.029 262.667 377.629 263.4C379.296 264.067 381.663 264.733 384.729 265.4C389.263 266.4 392.763 267.5 395.229 268.7C397.763 269.9 399.563 271.367 400.629 273.1C401.696 274.833 402.229 277.033 402.229 279.7C402.229 283.9 400.463 287.3 396.929 289.9C393.396 292.433 388.729 293.7 382.929 293.7ZM452.276 281.7C453.01 281.7 453.643 282 454.176 282.6C454.71 283.2 454.976 283.967 454.976 284.9C454.976 286.567 453.81 288.1 451.476 289.5C449.076 290.9 446.543 291.967 443.876 292.7C441.21 293.367 438.61 293.7 436.076 293.7C428.543 293.7 422.576 291.467 418.176 287C413.843 282.533 411.676 276.367 411.676 268.5C411.676 263.5 412.643 259.1 414.576 255.3C416.51 251.433 419.21 248.433 422.676 246.3C426.21 244.167 430.21 243.1 434.676 243.1C441.01 243.1 446.043 245.167 449.776 249.3C453.51 253.433 455.376 259.033 455.376 266.1C455.376 267.433 455.11 268.4 454.576 269C454.043 269.6 453.176 269.9 451.976 269.9H419.776C420.376 281.367 425.81 287.1 436.076 287.1C438.676 287.1 440.91 286.767 442.776 286.1C444.643 285.367 446.643 284.4 448.776 283.2C450.51 282.2 451.676 281.7 452.276 281.7ZM434.776 249.4C430.51 249.4 427.076 250.733 424.476 253.4C421.943 256.067 420.443 259.833 419.976 264.7H448.276C448.143 259.767 446.91 256 444.576 253.4C442.243 250.733 438.976 249.4 434.776 249.4Z" fill="#6979F8"/>
</svg>
